<?xml version="1.0" encoding="UTF-8" standalone="no"?>
<!DOCTYPE svg PUBLIC "-//W3C//DTD SVG 1.1//EN" "http://www.w3.org/Graphics/SVG/1.1/DTD/svg11.dtd">
<svg version="1.1" xmlns="http://www.w3.org/2000/svg" xmlns:xlink="http://www.w3.org/1999/xlink" preserveAspectRatio="xMidYMid meet" viewBox="0 0 640 640" width="640" height="640"><defs><path d="M585.57 128.95C594.7 128.95 602.11 136.35 602.11 145.48C602.11 233.54 602.11 481.19 602.11 569.26C602.11 578.39 594.7 585.79 585.57 585.79C478.35 585.79 173.23 585.79 66.01 585.79C56.88 585.79 49.47 578.39 49.47 569.26C49.47 481.19 49.47 233.54 49.47 145.48C49.47 136.35 56.88 128.95 66.01 128.95C173.23 128.95 478.35 128.95 585.57 128.95Z" id="a1bV4iuKkR"></path><path d="M588.19 149.47C590.35 149.47 592.11 151.22 592.11 153.38C592.11 172.81 592.11 227.19 592.11 246.62C592.11 248.78 590.35 250.53 588.19 250.53C482.45 250.53 169.13 250.53 63.38 250.53C61.22 250.53 59.47 248.78 59.47 246.62C59.47 227.19 59.47 172.81 59.47 153.38C59.47 151.22 61.22 149.47 63.38 149.47C169.13 149.47 482.45 149.47 588.19 149.47Z" id="ecgnbjGQ6"></path><path d="M588.19 256.84C590.35 256.84 592.11 258.59 592.11 260.75C592.11 280.18 592.11 334.56 592.11 353.98C592.11 356.14 590.35 357.89 588.19 357.89C482.45 357.89 169.13 357.89 63.38 357.89C61.22 357.89 59.47 356.14 59.47 353.98C59.47 334.56 59.47 280.18 59.47 260.75C59.47 258.59 61.22 256.84 63.38 256.84C169.13 256.84 482.45 256.84 588.19 256.84Z" id="a6fnkayeiH"></path><path d="M588.19 366.32C590.35 366.32 592.11 368.07 592.11 370.23C592.11 389.65 592.11 444.03 592.11 463.46C592.11 465.62 590.35 467.37 588.19 467.37C482.45 467.37 169.13 467.37 63.38 467.37C61.22 467.37 59.47 465.62 59.47 463.46C59.47 444.03 59.47 389.65 59.47 370.23C59.47 368.07 61.22 366.32 63.38 366.32C169.13 366.32 482.45 366.32 588.19 366.32Z" id="bgvD4LCAD"></path><path d="M588.19 473.68C590.35 473.68 592.11 475.43 592.11 477.59C592.11 497.02 592.11 551.4 592.11 570.83C592.11 572.99 590.35 574.74 588.19 574.74C482.45 574.74 169.13 574.74 63.38 574.74C61.22 574.74 59.47 572.99 59.47 570.83C59.47 551.4 59.47 497.02 59.47 477.59C59.47 475.43 61.22 473.68 63.38 473.68C169.13 473.68 482.45 473.68 588.19 473.68Z" id="b2EUmhM3lC"></path><path d="M359.29 179.29C370.13 179.29 378.93 188.08 378.93 198.93C378.93 202.86 378.93 195 378.93 198.93C378.93 209.78 370.13 218.57 359.29 218.57C304.64 218.57 160.36 218.57 105.71 218.57C94.87 218.57 86.07 209.78 86.07 198.93C86.07 195 86.07 202.86 86.07 198.93C86.07 188.08 94.87 179.29 105.71 179.29C160.36 179.29 304.64 179.29 359.29 179.29Z" id="b9K6tuJNUF"></path><path d="M359.29 287.73C370.13 287.73 378.93 296.52 378.93 307.37C378.93 311.3 378.93 303.44 378.93 307.37C378.93 318.22 370.13 327.01 359.29 327.01C304.64 327.01 160.36 327.01 105.71 327.01C94.87 327.01 86.07 318.22 86.07 307.37C86.07 303.44 86.07 311.3 86.07 307.37C86.07 296.52 94.87 287.73 105.71 287.73C160.36 287.73 304.64 287.73 359.29 287.73Z" id="aFaL3r5OY"></path><path d="M359.29 397.2C370.13 397.2 378.93 405.99 378.93 416.84C378.93 420.77 378.93 412.91 378.93 416.84C378.93 427.69 370.13 436.48 359.29 436.48C304.64 436.48 160.36 436.48 105.71 436.48C94.87 436.48 86.07 427.69 86.07 416.84C86.07 412.91 86.07 420.77 86.07 416.84C86.07 405.99 94.87 397.2 105.71 397.2C160.36 397.2 304.64 397.2 359.29 397.2Z" id="b3hDEA15ua"></path><path d="M359.29 504.57C370.13 504.57 378.93 513.36 378.93 524.21C378.93 528.14 378.93 520.28 378.93 524.21C378.93 535.06 370.13 543.85 359.29 543.85C304.64 543.85 160.36 543.85 105.71 543.85C94.87 543.85 86.07 535.06 86.07 524.21C86.07 520.28 86.07 528.14 86.07 524.21C86.07 513.36 94.87 504.57 105.71 504.57C160.36 504.57 304.64 504.57 359.29 504.57Z" id="atbk0Ujpr"></path><path d="M445 198.93C445 209.77 436.2 218.57 425.36 218.57C414.52 218.57 405.71 209.77 405.71 198.93C405.71 188.09 414.52 179.29 425.36 179.29C436.2 179.29 445 188.09 445 198.93Z" id="c2frL4VgSV"></path><path d="M567.14 198.93C567.14 209.77 558.34 218.57 547.5 218.57C536.66 218.57 527.86 209.77 527.86 198.93C527.86 188.09 536.66 179.29 547.5 179.29C558.34 179.29 567.14 188.09 567.14 198.93Z" id="bkh582fuh"></path><path d="M507.86 198.93C507.86 209.77 499.06 218.57 488.21 218.57C477.37 218.57 468.57 209.77 468.57 198.93C468.57 188.09 477.37 179.29 488.21 179.29C499.06 179.29 507.86 188.09 507.86 198.93Z" id="cdb71DJYI"></path><path d="M445 307.37C445 318.21 436.2 327.01 425.36 327.01C414.52 327.01 405.71 318.21 405.71 307.37C405.71 296.53 414.52 287.73 425.36 287.73C436.2 287.73 445 296.53 445 307.37Z" id="d7xLu9jsw"></path><path d="M567.14 307.37C567.14 318.21 558.34 327.01 547.5 327.01C536.66 327.01 527.86 318.21 527.86 307.37C527.86 296.53 536.66 287.73 547.5 287.73C558.34 287.73 567.14 296.53 567.14 307.37Z" id="a2g3uos3PC"></path><path d="M507.86 307.37C507.86 318.21 499.06 327.01 488.21 327.01C477.37 327.01 468.57 318.21 468.57 307.37C468.57 296.53 477.37 287.73 488.21 287.73C499.06 287.73 507.86 296.53 507.86 307.37Z" id="a1AsTQqgGv"></path><path d="M445 416.84C445 427.68 436.2 436.48 425.36 436.48C414.52 436.48 405.71 427.68 405.71 416.84C405.71 406 414.52 397.2 425.36 397.2C436.2 397.2 445 406 445 416.84Z" id="csjKAxYLj"></path><path d="M567.14 416.84C567.14 427.68 558.34 436.48 547.5 436.48C536.66 436.48 527.86 427.68 527.86 416.84C527.86 406 536.66 397.2 547.5 397.2C558.34 397.2 567.14 406 567.14 416.84Z" id="bsBBfEGsu"></path><path d="M507.86 416.84C507.86 427.68 499.06 436.48 488.21 436.48C477.37 436.48 468.57 427.68 468.57 416.84C468.57 406 477.37 397.2 488.21 397.2C499.06 397.2 507.86 406 507.86 416.84Z" id="i41VhGxEya"></path><path d="M445 524.21C445 535.05 436.2 543.85 425.36 543.85C414.52 543.85 405.71 535.05 405.71 524.21C405.71 513.37 414.52 504.57 425.36 504.57C436.2 504.57 445 513.37 445 524.21Z" id="bllI3xyJj"></path><path d="M567.14 524.21C567.14 535.05 558.34 543.85 547.5 543.85C536.66 543.85 527.86 535.05 527.86 524.21C527.86 513.37 536.66 504.57 547.5 504.57C558.34 504.57 567.14 513.37 567.14 524.21Z" id="c3TUkWOOTK"></path><path d="M507.86 524.21C507.86 535.05 499.06 543.85 488.21 543.85C477.37 543.85 468.57 535.05 468.57 524.21C468.57 513.37 477.37 504.57 488.21 504.57C499.06 504.57 507.86 513.37 507.86 524.21Z" id="f3jfBkRNE"></path></defs><g><g><g><use xlink:href="#a1bV4iuKkR" opacity="1" fill="#5d5c58" fill-opacity="1"></use></g><g><use xlink:href="#ecgnbjGQ6" opacity="1" fill="#1a1a1a" fill-opacity="1"></use></g><g><use xlink:href="#a6fnkayeiH" opacity="1" fill="#1a1a1a" fill-opacity="1"></use></g><g><use xlink:href="#bgvD4LCAD" opacity="1" fill="#1a1a1a" fill-opacity="1"></use></g><g><use xlink:href="#b2EUmhM3lC" opacity="1" fill="#1a1a1a" fill-opacity="1"></use></g><g><use xlink:href="#b9K6tuJNUF" opacity="1" fill="#9c919a" fill-opacity="1"></use></g><g><use xlink:href="#aFaL3r5OY" opacity="1" fill="#9c919a" fill-opacity="1"></use></g><g><use xlink:href="#b3hDEA15ua" opacity="1" fill="#9c919a" fill-opacity="1"></use></g><g><use xlink:href="#atbk0Ujpr" opacity="1" fill="#9c919a" fill-opacity="1"></use></g><g><use xlink:href="#c2frL4VgSV" opacity="1" fill="#4f8732" fill-opacity="1"></use></g><g><use xlink:href="#bkh582fuh" opacity="1" fill="#bc0b0b" fill-opacity="1"></use></g><g><use xlink:href="#cdb71DJYI" opacity="1" fill="#48d400" fill-opacity="1"></use></g><g><use xlink:href="#d7xLu9jsw" opacity="1" fill="#4f8732" fill-opacity="1"></use></g><g><use xlink:href="#a2g3uos3PC" opacity="1" fill="#bc0b0b" fill-opacity="1"></use></g><g><use xlink:href="#a1AsTQqgGv" opacity="1" fill="#48d400" fill-opacity="1"></use></g><g><use xlink:href="#csjKAxYLj" opacity="1" fill="#4f8732" fill-opacity="1"></use></g><g><use xlink:href="#bsBBfEGsu" opacity="1" fill="#bc0b0b" fill-opacity="1"></use></g><g><use xlink:href="#i41VhGxEya" opacity="1" fill="#48d400" fill-opacity="1"></use></g><g><use xlink:href="#bllI3xyJj" opacity="1" fill="#4f8732" fill-opacity="1"></use></g><g><use xlink:href="#c3TUkWOOTK" opacity="1" fill="#bc0b0b" fill-opacity="1"></use></g><g><use xlink:href="#f3jfBkRNE" opacity="1" fill="#48d400" fill-opacity="1"></use></g></g></g></svg>